# xmcd
#
# Track frame offsets: 
#        150
#        20838
#        38095
#        60583
#        86238
#
# Disc length: 1354 seconds
#
# Revision: 0
# Processed by: cddbd v1.5.2PL0 Copyright (c) Steve Scherf et al.
# Submitted via: ExactAudioCopy v1.3
#
DISCID=3c054805
DTITLE=Michael Osborn and The Drivers - Driven By A Sound
DYEAR=2014
DGENRE=Blues
TTITLE0=When I Listen To The Blues
TTITLE1=Retirement Blues
TTITLE2=Live Wire
TTITLE3=I've Been Daydreamin'
TTITLE4=Through With You
EXTD=
EXTT0=
EXTT1=
EXTT2=
EXTT3=
EXTT4=
PLAYORDER=
